{
  "asset": {
    "version": "2.0",
    "generator": "THREE.GLTFExporter"
  },
  "scenes": [
    {
      "name": "Scene",
      "nodes": [
        1
      ]
    }
  ],
  "scene": 0,
  "nodes": [
    {
      "matrix": [
        -1.3435885648505064e-7,
        0,
        1.0000001343588565,
        0,
        0,
        1,
        0,
        0,
        -1.0000001343588565,
        0,
        -1.3435885648505064e-7,
        0,
        0,
        0,
        0,
        1
      ],
      "name": "BezierCurve",
      "extras": {
        "name": "BezierCurve"
      },
      "mesh": 0
    },
    {
      "name": "Hero_Section_v2_low_mesh.glb",
      "children": [
        0
      ]
    }
  ],
  "bufferViews": [
    {
      "buffer": 0,
      "byteOffset": 0,
      "byteLength": 462444,
      "target": 34962,
      "byteStride": 12
    },
    {
      "buffer": 0,
      "byteOffset": 462444,
      "byteLength": 462444,
      "target": 34962,
      "byteStride": 12
    },
    {
      "buffer": 0,
      "byteOffset": 924888,
      "byteLength": 308296,
      "target": 34962,
      "byteStride": 8
    },
    {
      "buffer": 0,
      "byteOffset": 1233184,
      "byteLength": 912384,
      "target": 34963
    }
  ],
  "buffers": [
    {
      "byteLength": 2145568,
      "uri": "data:application/octet-stream;base64,"
    }
  ],
  "accessors": [
    {
      "bufferView": 0,
      "componentType": 5126,
      "count": 38537,
      "max": [
        1.3977675437927246,
        2.457033395767212,
        2.5471408367156982
      ],
      "min": [
        -1.4991092681884766,
        -2.4995744228363037,
        -2.6975862979888916
      ],
      "type": "VEC3"
    },
    {
      "bufferView": 1,
      "componentType": 5126,
      "count": 38537,
      "max": [
        0.9999607801437378,
        0.9999327659606934,
        0.9999272227287292
      ],
      "min": [
        -0.9999902844429016,
        -0.9999328255653381,
        -0.9999668598175049
      ],
      "type": "VEC3"
    },
    {
      "bufferView": 2,
      "componentType": 5126,
      "count": 38537,
      "max": [
        1.0000001192092896,
        1
      ],
      "min": [
        0,
        -1.1920928955078125e-7
      ],
      "type": "VEC2"
    },
    {
      "bufferView": 3,
      "componentType": 5125,
      "count": 228096,
      "max": [
        38536
      ],
      "min": [
        0
      ],
      "type": "SCALAR"
    }
  ],
  "materials": [
    {
      "pbrMetallicRoughness": {
        "metallicFactor": 0,
        "roughnessFactor": 0
      }
    }
  ],
  "meshes": [
    {
      "primitives": [
        {
          "mode": 4,
          "attributes": {
            "POSITION": 0,
            "NORMAL": 1,
            "TEXCOORD_0": 2
          },
          "indices": 3,
          "material": 0
        }
      ]
    }
  ]
}